<svg width="1427" height="28" viewBox="0 0 1427 28" fill="none" xmlns="http://www.w3.org/2000/svg">
<path d="M3.53 14.06C3.53 12.78 3.38667 11.7633 3.1 11.01C2.82 10.25 2.45333 9.68333 2 9.31C1.54667 8.93667 1.05667 8.69 0.530001 8.57C0.0100005 8.45 -0.493333 8.39 -0.98 8.39H-2.87V19.9H-0.95C-0.443333 19.9 0.0700003 19.82 0.59 19.66C1.11667 19.5 1.6 19.21 2.04 18.79C2.48667 18.37 2.84667 17.78 3.12 17.02C3.39333 16.2533 3.53 15.2667 3.53 14.06ZM4.92 14.06C4.92 15.5133 4.73333 16.6967 4.36 17.61C3.98667 18.5167 3.49333 19.2167 2.88 19.71C2.27333 20.2033 1.61667 20.5433 0.91 20.73C0.203334 20.91 -0.486666 21 -1.16 21H-4.14V7.26H-1.37C-0.59 7.26 0.173334 7.35 0.92 7.53C1.66667 7.70333 2.34 8.03333 2.94 8.52C3.54667 9 4.02667 9.68667 4.38 10.58C4.74 11.4667 4.92 12.6267 4.92 14.06ZM17.7622 7.26V8.35H14.6422V19.91H17.7622V21H10.2222V19.91H13.3422V8.35H10.2222V7.26H17.7622ZM28.1844 21.2C27.1644 21.2 26.2677 20.9433 25.4944 20.43C24.721 19.91 24.1177 19.1267 23.6844 18.08C23.251 17.0333 23.0344 15.7167 23.0344 14.13C23.0344 12.9433 23.191 11.91 23.5044 11.03C23.8177 10.1433 24.2377 9.40667 24.7644 8.82C25.2977 8.23333 25.8944 7.79667 26.5544 7.51C27.221 7.21667 27.901 7.07 28.5944 7.07C29.461 7.07 30.1744 7.19 30.7344 7.43C31.2944 7.67 31.8444 8.03667 32.3844 8.53L31.5344 9.41C31.1144 9.01 30.661 8.71667 30.1744 8.53C29.6877 8.34333 29.1477 8.25 28.5544 8.25C28.0477 8.25 27.5477 8.35 27.0544 8.55C26.5677 8.74333 26.1277 9.06333 25.7344 9.51C25.341 9.95667 25.0244 10.5567 24.7844 11.31C24.551 12.0633 24.4344 13 24.4344 14.12C24.4344 15.4867 24.5844 16.6067 24.8844 17.48C25.1844 18.3467 25.6277 18.9867 26.2144 19.4C26.8077 19.8133 27.531 20.02 28.3844 20.02C28.9044 20.02 29.401 19.96 29.8744 19.84C30.3544 19.7133 30.8177 19.5267 31.2644 19.28V14.78H28.2744L28.0944 13.59H32.5844V20.06C31.9844 20.3667 31.3477 20.6333 30.6744 20.86C30.001 21.0867 29.171 21.2 28.1844 21.2ZM45.7466 7.26V8.35H42.6266V19.91H45.7466V21H38.2066V19.91H41.3266V8.35H38.2066V7.26H45.7466ZM56.5688 8.44V21H55.2988V8.44H50.8688V7.26H61.0188L60.8788 8.44H56.5688ZM72.8309 17.33H66.9709L65.7609 21H64.5609L69.1109 7.26H70.8009L75.3609 21H74.0409L72.8309 17.33ZM67.4009 16.17H72.4109L69.9209 8.45L67.4009 16.17ZM80.9131 21V7.26H82.1931V19.76H88.5631L88.4031 21H80.9131ZM115.558 11.43C115.558 10.65 115.401 10.0367 115.088 9.59C114.781 9.14333 114.364 8.82667 113.838 8.64C113.318 8.44667 112.738 8.35 112.098 8.35H109.848V14.63H111.958C112.644 14.63 113.258 14.5433 113.798 14.37C114.338 14.19 114.764 13.87 115.078 13.41C115.398 12.9433 115.558 12.2833 115.558 11.43ZM116.957 11.4C116.957 12.4733 116.731 13.3267 116.278 13.96C115.824 14.5933 115.201 15.05 114.408 15.33C113.614 15.6033 112.708 15.74 111.688 15.74H109.848V21H108.568V7.26H111.828C113.401 7.26 114.648 7.59667 115.568 8.27C116.494 8.93667 116.957 9.98 116.957 11.4ZM130.54 11.01C130.54 11.71 130.383 12.32 130.07 12.84C129.756 13.3533 129.333 13.7767 128.8 14.11C128.266 14.4367 127.666 14.67 127 14.81L131.22 21H129.62L125.64 14.91H123.5V21H122.22V7.26H125.51C127.156 7.26 128.406 7.58 129.26 8.22C130.113 8.86 130.54 9.79 130.54 11.01ZM129.13 11.01C129.13 10.0633 128.856 9.38667 128.31 8.98C127.77 8.56667 126.923 8.36 125.77 8.36H123.5V13.81H125.73C126.803 13.81 127.636 13.6 128.23 13.18C128.83 12.7533 129.13 12.03 129.13 11.01ZM144.852 14.15C144.852 15.5167 144.669 16.7333 144.302 17.8C143.935 18.86 143.385 19.6933 142.652 20.3C141.925 20.9 141.015 21.2 139.922 21.2C138.835 21.2 137.925 20.9067 137.192 20.32C136.459 19.7267 135.909 18.9033 135.542 17.85C135.175 16.7967 134.992 15.5733 134.992 14.18C134.992 12.8067 135.175 11.5867 135.542 10.52C135.909 9.44667 136.459 8.60333 137.192 7.99C137.925 7.37667 138.835 7.07 139.922 7.07C141.015 7.07 141.925 7.37 142.652 7.97C143.385 8.56333 143.935 9.39333 144.302 10.46C144.669 11.52 144.852 12.75 144.852 14.15ZM143.492 14.15C143.492 12.2767 143.215 10.8267 142.662 9.8C142.109 8.76667 141.195 8.25 139.922 8.25C138.649 8.25 137.735 8.77 137.182 9.81C136.629 10.85 136.352 12.3067 136.352 14.18C136.352 16.0467 136.639 17.4867 137.212 18.5C137.785 19.5133 138.689 20.02 139.922 20.02C141.189 20.02 142.099 19.5133 142.652 18.5C143.212 17.48 143.492 16.03 143.492 14.15ZM157.444 14.06C157.444 12.78 157.301 11.7633 157.014 11.01C156.734 10.25 156.367 9.68333 155.914 9.31C155.461 8.93667 154.971 8.69 154.444 8.57C153.924 8.45 153.421 8.39 152.934 8.39H151.044V19.9H152.964C153.471 19.9 153.984 19.82 154.504 19.66C155.031 19.5 155.514 19.21 155.954 18.79C156.401 18.37 156.761 17.78 157.034 17.02C157.307 16.2533 157.444 15.2667 157.444 14.06ZM158.834 14.06C158.834 15.5133 158.647 16.6967 158.274 17.61C157.901 18.5167 157.407 19.2167 156.794 19.71C156.187 20.2033 155.531 20.5433 154.824 20.73C154.117 20.91 153.427 21 152.754 21H149.774V7.26H152.544C153.324 7.26 154.087 7.35 154.834 7.53C155.581 7.70333 156.254 8.03333 156.854 8.52C157.461 9 157.941 9.68667 158.294 10.58C158.654 11.4667 158.834 12.6267 158.834 14.06ZM172.276 7.26V16.59C172.276 17.5167 172.09 18.3267 171.716 19.02C171.343 19.7067 170.826 20.2433 170.166 20.63C169.506 21.01 168.743 21.2 167.876 21.2C166.996 21.2 166.23 21.0067 165.576 20.62C164.93 20.2267 164.426 19.6833 164.066 18.99C163.713 18.2967 163.536 17.4967 163.536 16.59V7.26H164.796V17.03C164.796 18.0167 165.08 18.7567 165.646 19.25C166.213 19.7367 166.956 19.98 167.876 19.98C168.81 19.98 169.56 19.7367 170.126 19.25C170.7 18.7567 170.986 18.0167 170.986 17.03V7.26H172.276ZM183.058 7.07C183.932 7.07 184.658 7.18 185.238 7.4C185.818 7.61333 186.375 7.93333 186.908 8.36L186.128 9.25C185.682 8.87 185.212 8.60667 184.718 8.46C184.232 8.30667 183.725 8.23 183.198 8.23C182.398 8.23 181.652 8.41333 180.958 8.78C180.272 9.14667 179.718 9.76 179.298 10.62C178.878 11.4733 178.668 12.6433 178.668 14.13C178.668 15.5767 178.868 16.73 179.268 17.59C179.668 18.45 180.205 19.07 180.878 19.45C181.558 19.83 182.312 20.02 183.138 20.02C183.932 20.02 184.582 19.9067 185.088 19.68C185.602 19.4533 186.038 19.19 186.398 18.89L187.118 19.81C186.732 20.1833 186.212 20.51 185.558 20.79C184.912 21.0633 184.112 21.2 183.158 21.2C182.085 21.2 181.105 20.93 180.218 20.39C179.338 19.8433 178.638 19.0467 178.118 18C177.598 16.9467 177.338 15.6567 177.338 14.13C177.338 12.5833 177.602 11.2867 178.128 10.24C178.662 9.19333 179.362 8.40333 180.228 7.87C181.102 7.33667 182.045 7.07 183.058 7.07ZM196.491 8.44V21H195.221V8.44H190.791V7.26H200.941L200.801 8.44H196.491ZM227.405 14.06C227.405 12.78 227.262 11.7633 226.975 11.01C226.695 10.25 226.328 9.68333 225.875 9.31C225.422 8.93667 224.932 8.69 224.405 8.57C223.885 8.45 223.382 8.39 222.895 8.39H221.005V19.9H222.925C223.432 19.9 223.945 19.82 224.465 19.66C224.992 19.5 225.475 19.21 225.915 18.79C226.362 18.37 226.722 17.78 226.995 17.02C227.268 16.2533 227.405 15.2667 227.405 14.06ZM228.795 14.06C228.795 15.5133 228.608 16.6967 228.235 17.61C227.862 18.5167 227.368 19.2167 226.755 19.71C226.148 20.2033 225.492 20.5433 224.785 20.73C224.078 20.91 223.388 21 222.715 21H219.735V7.26H222.505C223.285 7.26 224.048 7.35 224.795 7.53C225.542 7.70333 226.215 8.03333 226.815 8.52C227.422 9 227.902 9.68667 228.255 10.58C228.615 11.4667 228.795 12.6267 228.795 14.06ZM235.847 8.4V13.43H241.047V14.6H235.847V19.89H242.257V21H234.567V7.26H242.027L241.857 8.4H235.847ZM256.399 17.26C256.399 18.0267 256.209 18.7067 255.829 19.3C255.456 19.8933 254.909 20.36 254.189 20.7C253.469 21.0333 252.589 21.2 251.549 21.2C250.636 21.2 249.779 21.0567 248.979 20.77C248.186 20.4833 247.499 20.0633 246.919 19.51L247.759 18.55C248.226 18.9967 248.769 19.3567 249.389 19.63C250.009 19.8967 250.753 20.03 251.619 20.03C252.206 20.03 252.763 19.93 253.289 19.73C253.816 19.53 254.246 19.2233 254.579 18.81C254.913 18.3967 255.079 17.87 255.079 17.23C255.079 16.75 254.989 16.3433 254.809 16.01C254.629 15.67 254.309 15.37 253.849 15.11C253.389 14.8433 252.743 14.59 251.909 14.35C251.056 14.1033 250.296 13.8233 249.629 13.51C248.963 13.19 248.439 12.79 248.059 12.31C247.679 11.8233 247.489 11.21 247.489 10.47C247.489 9.83 247.663 9.25333 248.009 8.74C248.363 8.22667 248.856 7.82 249.489 7.52C250.123 7.22 250.866 7.07 251.719 7.07C252.633 7.07 253.423 7.2 254.089 7.46C254.763 7.72 255.383 8.09333 255.949 8.58L255.089 9.52C254.589 9.06667 254.049 8.74 253.469 8.54C252.896 8.34 252.313 8.24 251.719 8.24C251.193 8.24 250.706 8.32333 250.259 8.49C249.813 8.65 249.453 8.89333 249.179 9.22C248.906 9.54667 248.769 9.96333 248.769 10.47C248.769 10.8967 248.883 11.2667 249.109 11.58C249.336 11.8867 249.716 12.17 250.249 12.43C250.789 12.6833 251.516 12.9433 252.429 13.21C253.096 13.3967 253.733 13.6367 254.339 13.93C254.946 14.2167 255.439 14.6233 255.819 15.15C256.206 15.67 256.399 16.3733 256.399 17.26ZM269.622 7.26V8.35H266.502V19.91H269.622V21H262.082V19.91H265.202V8.35H262.082V7.26H269.622ZM280.044 21.2C279.024 21.2 278.127 20.9433 277.354 20.43C276.58 19.91 275.977 19.1267 275.544 18.08C275.11 17.0333 274.894 15.7167 274.894 14.13C274.894 12.9433 275.05 11.91 275.364 11.03C275.677 10.1433 276.097 9.40667 276.624 8.82C277.157 8.23333 277.754 7.79667 278.414 7.51C279.08 7.21667 279.76 7.07 280.454 7.07C281.32 7.07 282.034 7.19 282.594 7.43C283.154 7.67 283.704 8.03667 284.244 8.53L283.394 9.41C282.974 9.01 282.52 8.71667 282.034 8.53C281.547 8.34333 281.007 8.25 280.414 8.25C279.907 8.25 279.407 8.35 278.914 8.55C278.427 8.74333 277.987 9.06333 277.594 9.51C277.2 9.95667 276.884 10.5567 276.644 11.31C276.41 12.0633 276.294 13 276.294 14.12C276.294 15.4867 276.444 16.6067 276.744 17.48C277.044 18.3467 277.487 18.9867 278.074 19.4C278.667 19.8133 279.39 20.02 280.244 20.02C280.764 20.02 281.26 19.96 281.734 19.84C282.214 19.7133 282.677 19.5267 283.124 19.28V14.78H280.134L279.954 13.59H284.444V20.06C283.844 20.3667 283.207 20.6333 282.534 20.86C281.86 21.0867 281.03 21.2 280.044 21.2ZM296.006 21L290.806 8.61C290.799 8.71667 290.803 8.94 290.816 9.28C290.829 9.61333 290.846 10.02 290.866 10.5C290.893 10.98 290.913 11.49 290.926 12.03C290.946 12.5633 290.956 13.0867 290.956 13.6V21H289.696V7.26H291.526L296.866 19.73C296.879 19.61 296.873 19.3 296.846 18.8C296.819 18.3 296.789 17.6833 296.756 16.95C296.729 16.2167 296.716 15.44 296.716 14.62V7.26H297.976V21H296.006Z" fill="white"/>
<path d="M669.05 14.05C669.05 15.49 668.863 16.6667 668.49 17.58C668.117 18.4867 667.623 19.19 667.01 19.69C666.397 20.1833 665.723 20.5267 664.99 20.72C664.263 20.9067 663.543 21 662.83 21H659.67V7.23H662.61C663.417 7.23 664.2 7.32 664.96 7.5C665.727 7.68 666.417 8.01333 667.03 8.5C667.65 8.98 668.14 9.66667 668.5 10.56C668.867 11.4533 669.05 12.6167 669.05 14.05ZM667.2 14.05C667.2 12.85 667.073 11.89 666.82 11.17C666.567 10.45 666.233 9.91 665.82 9.55C665.407 9.19 664.953 8.95 664.46 8.83C663.973 8.71 663.493 8.65 663.02 8.65H661.4V19.61H663.04C663.533 19.61 664.027 19.5333 664.52 19.38C665.013 19.22 665.46 18.94 665.86 18.54C666.267 18.14 666.59 17.5767 666.83 16.85C667.077 16.1233 667.2 15.19 667.2 14.05ZM681.932 7.23V8.62H678.872V19.61H681.932V21H674.052V19.61H677.112V8.62H674.052V7.23H681.932ZM696.714 17.19C696.714 18.3767 696.274 19.3467 695.394 20.1C694.521 20.8533 693.284 21.23 691.684 21.23C690.678 21.23 689.764 21.0767 688.944 20.77C688.131 20.4633 687.434 20.03 686.854 19.47L687.884 18.31C688.358 18.7567 688.904 19.1133 689.524 19.38C690.144 19.64 690.874 19.77 691.714 19.77C692.274 19.77 692.798 19.68 693.284 19.5C693.771 19.3133 694.164 19.0333 694.464 18.66C694.764 18.28 694.914 17.8 694.914 17.22C694.914 16.78 694.828 16.4033 694.654 16.09C694.481 15.77 694.174 15.49 693.734 15.25C693.294 15.0033 692.681 14.7633 691.894 14.53C690.988 14.2633 690.201 13.9633 689.534 13.63C688.874 13.29 688.361 12.8767 687.994 12.39C687.634 11.8967 687.454 11.2833 687.454 10.55C687.454 9.86333 687.644 9.25333 688.024 8.72C688.404 8.18667 688.928 7.77 689.594 7.47C690.268 7.16333 691.041 7.01 691.914 7.01C692.868 7.01 693.694 7.14667 694.394 7.42C695.101 7.68667 695.741 8.07333 696.314 8.58L695.294 9.71C694.801 9.27667 694.271 8.96 693.704 8.76C693.138 8.56 692.561 8.46 691.974 8.46C691.221 8.46 690.574 8.62667 690.034 8.96C689.494 9.29333 689.224 9.80333 689.224 10.49C689.224 10.89 689.331 11.2333 689.544 11.52C689.758 11.8 690.118 12.06 690.624 12.3C691.131 12.54 691.821 12.7867 692.694 13.04C693.408 13.2467 694.068 13.5067 694.674 13.82C695.288 14.1267 695.781 14.5467 696.154 15.08C696.528 15.6067 696.714 16.31 696.714 17.19ZM706.807 8.72V21H705.077V8.72H700.777V7.23H711.167L710.987 8.72H706.807ZM724.719 11.09C724.719 12.1233 724.395 12.96 723.749 13.6C723.102 14.2333 722.305 14.6633 721.359 14.89L725.439 21H723.359L719.599 15.09H717.739V21H715.999V7.23H719.539C721.239 7.23 722.525 7.55667 723.399 8.21C724.279 8.85667 724.719 9.81667 724.719 11.09ZM722.859 11.09C722.859 10.21 722.602 9.57667 722.089 9.19C721.582 8.80333 720.799 8.61 719.739 8.61H717.739V13.73H719.739C720.725 13.73 721.492 13.53 722.039 13.13C722.585 12.7233 722.859 12.0433 722.859 11.09ZM737.901 7.23V8.62H734.841V19.61H737.901V21H730.021V19.61H733.081V8.62H730.021V7.23H737.901ZM752.743 17.07C752.743 17.8233 752.593 18.4533 752.293 18.96C752 19.46 751.603 19.86 751.103 20.16C750.61 20.46 750.056 20.6767 749.443 20.81C748.836 20.9367 748.216 21 747.583 21H743.883V7.23H747.273C747.873 7.23 748.463 7.28667 749.043 7.4C749.623 7.50667 750.146 7.69333 750.613 7.96C751.08 8.22 751.45 8.57333 751.723 9.02C752.003 9.46667 752.143 10.0267 752.143 10.7C752.143 11.2933 752.02 11.7967 751.773 12.21C751.533 12.6167 751.216 12.9433 750.823 13.19C750.436 13.4367 750.023 13.61 749.583 13.71C750.09 13.7967 750.583 13.9567 751.063 14.19C751.55 14.4167 751.95 14.76 752.263 15.22C752.583 15.68 752.743 16.2967 752.743 17.07ZM750.363 10.79C750.363 10.01 750.12 9.45667 749.633 9.13C749.153 8.79667 748.496 8.63 747.663 8.63H745.613V13.09H747.833C748.646 13.09 749.27 12.91 749.703 12.55C750.143 12.1833 750.363 11.5967 750.363 10.79ZM750.913 17.13C750.913 16.4367 750.776 15.9033 750.503 15.53C750.236 15.15 749.88 14.8867 749.433 14.74C748.986 14.5933 748.496 14.52 747.963 14.52H745.613V19.57H747.883C748.336 19.57 748.796 19.51 749.263 19.39C749.73 19.2633 750.12 19.0267 750.433 18.68C750.753 18.3267 750.913 17.81 750.913 17.13ZM766.495 7.23V16.54C766.495 17.4667 766.309 18.2833 765.935 18.99C765.562 19.6967 765.032 20.2467 764.345 20.64C763.659 21.0333 762.852 21.23 761.925 21.23C760.979 21.23 760.165 21.0333 759.485 20.64C758.812 20.24 758.295 19.69 757.935 18.99C757.575 18.2833 757.395 17.4667 757.395 16.54V7.23H759.115V16.6C759.115 17.6467 759.359 18.43 759.845 18.95C760.339 19.47 761.032 19.73 761.925 19.73C762.825 19.73 763.519 19.47 764.005 18.95C764.499 18.43 764.745 17.6467 764.745 16.6V7.23H766.495ZM776.768 8.72V21H775.038V8.72H770.738V7.23H781.128L780.948 8.72H776.768ZM788.18 8.65V13.29H793.28V14.72H788.18V19.61H794.44V21H786.44V7.23H794.26L794.06 8.65H788.18ZM808.972 14.05C808.972 15.49 808.785 16.6667 808.412 17.58C808.039 18.4867 807.545 19.19 806.932 19.69C806.319 20.1833 805.645 20.5267 804.912 20.72C804.185 20.9067 803.465 21 802.752 21H799.592V7.23H802.532C803.339 7.23 804.122 7.32 804.882 7.5C805.649 7.68 806.339 8.01333 806.952 8.5C807.572 8.98 808.062 9.66667 808.422 10.56C808.789 11.4533 808.972 12.6167 808.972 14.05ZM807.122 14.05C807.122 12.85 806.995 11.89 806.742 11.17C806.489 10.45 806.155 9.91 805.742 9.55C805.329 9.19 804.875 8.95 804.382 8.83C803.895 8.71 803.415 8.65 802.942 8.65H801.322V19.61H802.962C803.455 19.61 803.949 19.5333 804.442 19.38C804.935 19.22 805.382 18.94 805.782 18.54C806.189 18.14 806.512 17.5767 806.752 16.85C806.999 16.1233 807.122 15.19 807.122 14.05ZM832.736 8.72V21H831.006V8.72H826.706V7.23H837.096L836.916 8.72H832.736ZM844.148 8.65V13.29H849.248V14.72H844.148V19.61H850.408V21H842.408V7.23H850.228L850.028 8.65H844.148ZM862.561 17.49H857.111L856.011 21H854.301L858.781 7.23H861.001L865.481 21H863.661L862.561 17.49ZM857.561 16.05H862.111L859.851 8.69L857.561 16.05ZM878.493 7.23L879.273 21H877.603L877.173 13.81C877.139 13.17 877.113 12.5167 877.093 11.85C877.079 11.1833 877.069 10.58 877.063 10.04C877.056 9.49333 877.056 9.08667 877.063 8.82L874.743 18.53H873.003L870.513 8.82C870.526 9.08 870.536 9.49333 870.543 10.06C870.549 10.6267 870.549 11.2467 870.543 11.92C870.536 12.5933 870.519 13.2167 870.493 13.79L870.123 21H868.493L869.273 7.23H871.693L873.923 16.66L876.053 7.23H878.493ZM892.605 17.19C892.605 18.3767 892.165 19.3467 891.285 20.1C890.412 20.8533 889.175 21.23 887.575 21.23C886.568 21.23 885.655 21.0767 884.835 20.77C884.022 20.4633 883.325 20.03 882.745 19.47L883.775 18.31C884.248 18.7567 884.795 19.1133 885.415 19.38C886.035 19.64 886.765 19.77 887.605 19.77C888.165 19.77 888.688 19.68 889.175 19.5C889.662 19.3133 890.055 19.0333 890.355 18.66C890.655 18.28 890.805 17.8 890.805 17.22C890.805 16.78 890.718 16.4033 890.545 16.09C890.372 15.77 890.065 15.49 889.625 15.25C889.185 15.0033 888.572 14.7633 887.785 14.53C886.878 14.2633 886.092 13.9633 885.425 13.63C884.765 13.29 884.252 12.8767 883.885 12.39C883.525 11.8967 883.345 11.2833 883.345 10.55C883.345 9.86333 883.535 9.25333 883.915 8.72C884.295 8.18667 884.818 7.77 885.485 7.47C886.158 7.16333 886.932 7.01 887.805 7.01C888.758 7.01 889.585 7.14667 890.285 7.42C890.992 7.68667 891.632 8.07333 892.205 8.58L891.185 9.71C890.692 9.27667 890.162 8.96 889.595 8.76C889.028 8.56 888.452 8.46 887.865 8.46C887.112 8.46 886.465 8.62667 885.925 8.96C885.385 9.29333 885.115 9.80333 885.115 10.49C885.115 10.89 885.222 11.2333 885.435 11.52C885.648 11.8 886.008 12.06 886.515 12.3C887.022 12.54 887.712 12.7867 888.585 13.04C889.298 13.2467 889.958 13.5067 890.565 13.82C891.178 14.1267 891.672 14.5467 892.045 15.08C892.418 15.6067 892.605 16.31 892.605 17.19Z" fill="white"/>
<path d="M333.75 11.09C333.75 12.1233 333.427 12.96 332.78 13.6C332.133 14.2333 331.337 14.6633 330.39 14.89L334.47 21H332.39L328.63 15.09H326.77V21H325.03V7.23H328.57C330.27 7.23 331.557 7.55667 332.43 8.21C333.31 8.85667 333.75 9.81667 333.75 11.09ZM331.89 11.09C331.89 10.21 331.633 9.57667 331.12 9.19C330.613 8.80333 329.83 8.61 328.77 8.61H326.77V13.73H328.77C329.757 13.73 330.523 13.53 331.07 13.13C331.617 12.7233 331.89 12.0433 331.89 11.09ZM341.242 8.65V13.29H346.342V14.72H341.242V19.61H347.502V21H339.502V7.23H347.322L347.122 8.65H341.242ZM361.594 7.23L362.374 21H360.704L360.274 13.81C360.241 13.17 360.214 12.5167 360.194 11.85C360.181 11.1833 360.171 10.58 360.164 10.04C360.158 9.49333 360.158 9.08667 360.164 8.82L357.844 18.53H356.104L353.614 8.82C353.628 9.08 353.638 9.49333 353.644 10.06C353.651 10.6267 353.651 11.2467 353.644 11.92C353.638 12.5933 353.621 13.2167 353.594 13.79L353.224 21H351.594L352.374 7.23H354.794L357.024 16.66L359.154 7.23H361.594ZM376.047 14.13C376.047 15.5233 375.857 16.7533 375.477 17.82C375.097 18.8867 374.53 19.7233 373.777 20.33C373.03 20.93 372.097 21.23 370.977 21.23C369.857 21.23 368.92 20.9367 368.167 20.35C367.42 19.7567 366.857 18.93 366.477 17.87C366.097 16.81 365.907 15.57 365.907 14.15C365.907 12.7567 366.097 11.5233 366.477 10.45C366.857 9.37667 367.42 8.53667 368.167 7.93C368.92 7.31667 369.857 7.01 370.977 7.01C372.097 7.01 373.03 7.30667 373.777 7.9C374.53 8.49333 375.097 9.32667 375.477 10.4C375.857 11.4667 376.047 12.71 376.047 14.13ZM374.227 14.13C374.227 12.2967 373.973 10.8933 373.467 9.92C372.967 8.94667 372.137 8.46 370.977 8.46C369.817 8.46 368.983 8.95 368.477 9.93C367.977 10.91 367.727 12.3167 367.727 14.15C367.727 15.9833 367.987 17.38 368.507 18.34C369.027 19.2933 369.85 19.77 370.977 19.77C372.137 19.77 372.967 19.29 373.467 18.33C373.973 17.3633 374.227 15.9633 374.227 14.13ZM385.799 8.72V21H384.069V8.72H379.769V7.23H390.159L389.979 8.72H385.799ZM397.211 8.65V13.29H402.311V14.72H397.211V19.61H403.471V21H395.471V7.23H403.291L403.091 8.65H397.211ZM432.855 7.23L430.755 21H428.475L426.895 10.61L425.305 21H422.975L421.035 7.23H422.775L424.245 19.09L425.895 8.83H428.025L429.595 19.09L431.245 7.23H432.855ZM446.007 14.13C446.007 15.5233 445.818 16.7533 445.438 17.82C445.058 18.8867 444.491 19.7233 443.738 20.33C442.991 20.93 442.058 21.23 440.938 21.23C439.818 21.23 438.881 20.9367 438.128 20.35C437.381 19.7567 436.818 18.93 436.438 17.87C436.058 16.81 435.868 15.57 435.868 14.15C435.868 12.7567 436.058 11.5233 436.438 10.45C436.818 9.37667 437.381 8.53667 438.128 7.93C438.881 7.31667 439.818 7.01 440.938 7.01C442.058 7.01 442.991 7.30667 443.738 7.9C444.491 8.49333 445.058 9.32667 445.438 10.4C445.818 11.4667 446.007 12.71 446.007 14.13ZM444.188 14.13C444.188 12.2967 443.934 10.8933 443.428 9.92C442.928 8.94667 442.098 8.46 440.938 8.46C439.778 8.46 438.944 8.95 438.438 9.93C437.938 10.91 437.688 12.3167 437.688 14.15C437.688 15.9833 437.948 17.38 438.468 18.34C438.988 19.2933 439.811 19.77 440.938 19.77C442.098 19.77 442.928 19.29 443.428 18.33C443.934 17.3633 444.188 15.9633 444.188 14.13ZM459.68 11.09C459.68 12.1233 459.356 12.96 458.71 13.6C458.063 14.2333 457.266 14.6633 456.32 14.89L460.4 21H458.32L454.56 15.09H452.7V21H450.96V7.23H454.5C456.2 7.23 457.486 7.55667 458.36 8.21C459.24 8.85667 459.68 9.81667 459.68 11.09ZM457.82 11.09C457.82 10.21 457.563 9.57667 457.05 9.19C456.543 8.80333 455.76 8.61 454.7 8.61H452.7V13.73H454.7C455.686 13.73 456.453 13.53 457 13.13C457.546 12.7233 457.82 12.0433 457.82 11.09ZM466.752 21H465.022V7.23H466.752V21ZM466.852 13.65L472.272 7.23H474.272L468.892 13.54L474.652 21H472.492L466.852 13.65Z" fill="white"/>
<path d="M520.37 7.26V16.59C520.37 17.5167 520.183 18.3267 519.81 19.02C519.437 19.7067 518.92 20.2433 518.26 20.63C517.6 21.01 516.837 21.2 515.97 21.2C515.09 21.2 514.323 21.0067 513.67 20.62C513.023 20.2267 512.52 19.6833 512.16 18.99C511.807 18.2967 511.63 17.4967 511.63 16.59V7.26H512.89V17.03C512.89 18.0167 513.173 18.7567 513.74 19.25C514.307 19.7367 515.05 19.98 515.97 19.98C516.903 19.98 517.653 19.7367 518.22 19.25C518.793 18.7567 519.08 18.0167 519.08 17.03V7.26H520.37ZM525.162 7.26H526.692L529.992 12.8L533.292 7.26H534.692L530.722 13.59L535.202 21H533.672L529.952 14.5L526.162 21H524.772L529.212 13.67L525.162 7.26ZM561.507 14.06C561.507 12.78 561.363 11.7633 561.077 11.01C560.797 10.25 560.43 9.68333 559.977 9.31C559.523 8.93667 559.033 8.69 558.507 8.57C557.987 8.45 557.483 8.39 556.997 8.39H555.107V19.9H557.027C557.533 19.9 558.047 19.82 558.567 19.66C559.093 19.5 559.577 19.21 560.017 18.79C560.463 18.37 560.823 17.78 561.097 17.02C561.37 16.2533 561.507 15.2667 561.507 14.06ZM562.897 14.06C562.897 15.5133 562.71 16.6967 562.337 17.61C561.963 18.5167 561.47 19.2167 560.857 19.71C560.25 20.2033 559.593 20.5433 558.887 20.73C558.18 20.91 557.49 21 556.817 21H553.837V7.26H556.607C557.387 7.26 558.15 7.35 558.897 7.53C559.643 7.70333 560.317 8.03333 560.917 8.52C561.523 9 562.003 9.68667 562.357 10.58C562.717 11.4667 562.897 12.6267 562.897 14.06ZM569.949 8.4V13.43H575.149V14.6H569.949V19.89H576.359V21H568.669V7.26H576.129L575.959 8.4H569.949ZM590.501 17.26C590.501 18.0267 590.311 18.7067 589.931 19.3C589.558 19.8933 589.011 20.36 588.291 20.7C587.571 21.0333 586.691 21.2 585.651 21.2C584.738 21.2 583.881 21.0567 583.081 20.77C582.288 20.4833 581.601 20.0633 581.021 19.51L581.861 18.55C582.328 18.9967 582.871 19.3567 583.491 19.63C584.111 19.8967 584.854 20.03 585.721 20.03C586.308 20.03 586.864 19.93 587.391 19.73C587.918 19.53 588.348 19.2233 588.681 18.81C589.014 18.3967 589.181 17.87 589.181 17.23C589.181 16.75 589.091 16.3433 588.911 16.01C588.731 15.67 588.411 15.37 587.951 15.11C587.491 14.8433 586.844 14.59 586.011 14.35C585.158 14.1033 584.398 13.8233 583.731 13.51C583.064 13.19 582.541 12.79 582.161 12.31C581.781 11.8233 581.591 11.21 581.591 10.47C581.591 9.83 581.764 9.25333 582.111 8.74C582.464 8.22667 582.958 7.82 583.591 7.52C584.224 7.22 584.968 7.07 585.821 7.07C586.734 7.07 587.524 7.2 588.191 7.46C588.864 7.72 589.484 8.09333 590.051 8.58L589.191 9.52C588.691 9.06667 588.151 8.74 587.571 8.54C586.998 8.34 586.414 8.24 585.821 8.24C585.294 8.24 584.808 8.32333 584.361 8.49C583.914 8.65 583.554 8.89333 583.281 9.22C583.008 9.54667 582.871 9.96333 582.871 10.47C582.871 10.8967 582.984 11.2667 583.211 11.58C583.438 11.8867 583.818 12.17 584.351 12.43C584.891 12.6833 585.618 12.9433 586.531 13.21C587.198 13.3967 587.834 13.6367 588.441 13.93C589.048 14.2167 589.541 14.6233 589.921 15.15C590.308 15.67 590.501 16.3733 590.501 17.26ZM603.723 7.26V8.35H600.603V19.91H603.723V21H596.183V19.91H599.303V8.35H596.183V7.26H603.723ZM614.145 21.2C613.125 21.2 612.229 20.9433 611.455 20.43C610.682 19.91 610.079 19.1267 609.645 18.08C609.212 17.0333 608.995 15.7167 608.995 14.13C608.995 12.9433 609.152 11.91 609.465 11.03C609.779 10.1433 610.199 9.40667 610.725 8.82C611.259 8.23333 611.855 7.79667 612.515 7.51C613.182 7.21667 613.862 7.07 614.555 7.07C615.422 7.07 616.135 7.19 616.695 7.43C617.255 7.67 617.805 8.03667 618.345 8.53L617.495 9.41C617.075 9.01 616.622 8.71667 616.135 8.53C615.649 8.34333 615.109 8.25 614.515 8.25C614.009 8.25 613.509 8.35 613.015 8.55C612.529 8.74333 612.089 9.06333 611.695 9.51C611.302 9.95667 610.985 10.5567 610.745 11.31C610.512 12.0633 610.395 13 610.395 14.12C610.395 15.4867 610.545 16.6067 610.845 17.48C611.145 18.3467 611.589 18.9867 612.175 19.4C612.769 19.8133 613.492 20.02 614.345 20.02C614.865 20.02 615.362 19.96 615.835 19.84C616.315 19.7133 616.779 19.5267 617.225 19.28V14.78H614.235L614.055 13.59H618.545V20.06C617.945 20.3667 617.309 20.6333 616.635 20.86C615.962 21.0867 615.132 21.2 614.145 21.2ZM630.108 21L624.908 8.61C624.901 8.71667 624.904 8.94 624.918 9.28C624.931 9.61333 624.948 10.02 624.968 10.5C624.994 10.98 625.014 11.49 625.028 12.03C625.048 12.5633 625.058 13.0867 625.058 13.6V21H623.798V7.26H625.628L630.968 19.73C630.981 19.61 630.974 19.3 630.948 18.8C630.921 18.3 630.891 17.6833 630.858 16.95C630.831 16.2167 630.818 15.44 630.818 14.62V7.26H632.078V21H630.108Z" fill="white"/>
<path d="M915.16 7.07C916.033 7.07 916.76 7.18 917.34 7.4C917.92 7.61333 918.477 7.93333 919.01 8.36L918.23 9.25C917.783 8.87 917.313 8.60667 916.82 8.46C916.333 8.30667 915.827 8.23 915.3 8.23C914.5 8.23 913.753 8.41333 913.06 8.78C912.373 9.14667 911.82 9.76 911.4 10.62C910.98 11.4733 910.77 12.6433 910.77 14.13C910.77 15.5767 910.97 16.73 911.37 17.59C911.77 18.45 912.307 19.07 912.98 19.45C913.66 19.83 914.413 20.02 915.24 20.02C916.033 20.02 916.683 19.9067 917.19 19.68C917.703 19.4533 918.14 19.19 918.5 18.89L919.22 19.81C918.833 20.1833 918.313 20.51 917.66 20.79C917.013 21.0633 916.213 21.2 915.26 21.2C914.187 21.2 913.207 20.93 912.32 20.39C911.44 19.8433 910.74 19.0467 910.22 18C909.7 16.9467 909.44 15.6567 909.44 14.13C909.44 12.5833 909.703 11.2867 910.23 10.24C910.763 9.19333 911.463 8.40333 912.33 7.87C913.203 7.33667 914.147 7.07 915.16 7.07ZM932.602 11.01C932.602 11.71 932.446 12.32 932.132 12.84C931.819 13.3533 931.396 13.7767 930.862 14.11C930.329 14.4367 929.729 14.67 929.062 14.81L933.282 21H931.682L927.702 14.91H925.562V21H924.282V7.26H927.572C929.219 7.26 930.469 7.58 931.322 8.22C932.176 8.86 932.602 9.79 932.602 11.01ZM931.192 11.01C931.192 10.0633 930.919 9.38667 930.372 8.98C929.832 8.56667 928.986 8.36 927.832 8.36H925.562V13.81H927.792C928.866 13.81 929.699 13.6 930.292 13.18C930.892 12.7533 931.192 12.03 931.192 11.01ZM939.964 8.4V13.43H945.164V14.6H939.964V19.89H946.374V21H938.684V7.26H946.144L945.974 8.4H939.964ZM958.847 17.33H952.987L951.777 21H950.577L955.127 7.26H956.817L961.377 21H960.057L958.847 17.33ZM953.417 16.17H958.427L955.937 8.45L953.417 16.17ZM970.569 8.44V21H969.299V8.44H964.869V7.26H975.019L974.879 8.44H970.569ZM987.731 7.26V8.35H984.611V19.91H987.731V21H980.191V19.91H983.311V8.35H980.191V7.26H987.731ZM997.983 19.2L1002.03 7.26H1003.3L998.513 21H997.393L992.593 7.26H993.983L997.983 19.2ZM1015.72 7.26V8.35H1012.6V19.91H1015.72V21H1008.18V19.91H1011.3V8.35H1008.18V7.26H1015.72ZM1026.54 8.44V21H1025.27V8.44H1020.84V7.26H1030.99L1030.85 8.44H1026.54ZM1040.58 15.66V21H1039.28V15.68L1034.59 7.26H1036.01L1039.96 14.43L1043.96 7.26H1045.27L1040.58 15.66Z" fill="white"/>
<path d="M1211.54 17.26C1211.54 18.0267 1211.35 18.7067 1210.97 19.3C1210.6 19.8933 1210.05 20.36 1209.33 20.7C1208.61 21.0333 1207.73 21.2 1206.69 21.2C1205.78 21.2 1204.92 21.0567 1204.12 20.77C1203.33 20.4833 1202.64 20.0633 1202.06 19.51L1202.9 18.55C1203.37 18.9967 1203.91 19.3567 1204.53 19.63C1205.15 19.8967 1205.89 20.03 1206.76 20.03C1207.35 20.03 1207.9 19.93 1208.43 19.73C1208.96 19.53 1209.39 19.2233 1209.72 18.81C1210.05 18.3967 1210.22 17.87 1210.22 17.23C1210.22 16.75 1210.13 16.3433 1209.95 16.01C1209.77 15.67 1209.45 15.37 1208.99 15.11C1208.53 14.8433 1207.88 14.59 1207.05 14.35C1206.2 14.1033 1205.44 13.8233 1204.77 13.51C1204.1 13.19 1203.58 12.79 1203.2 12.31C1202.82 11.8233 1202.63 11.21 1202.63 10.47C1202.63 9.83 1202.8 9.25333 1203.15 8.74C1203.5 8.22667 1204 7.82 1204.63 7.52C1205.26 7.22 1206.01 7.07 1206.86 7.07C1207.77 7.07 1208.56 7.2 1209.23 7.46C1209.9 7.72 1210.52 8.09333 1211.09 8.58L1210.23 9.52C1209.73 9.06667 1209.19 8.74 1208.61 8.54C1208.04 8.34 1207.45 8.24 1206.86 8.24C1206.33 8.24 1205.85 8.32333 1205.4 8.49C1204.95 8.65 1204.59 8.89333 1204.32 9.22C1204.05 9.54667 1203.91 9.96333 1203.91 10.47C1203.91 10.8967 1204.02 11.2667 1204.25 11.58C1204.48 11.8867 1204.86 12.17 1205.39 12.43C1205.93 12.6833 1206.66 12.9433 1207.57 13.21C1208.24 13.3967 1208.87 13.6367 1209.48 13.93C1210.09 14.2167 1210.58 14.6233 1210.96 15.15C1211.35 15.67 1211.54 16.3733 1211.54 17.26ZM1225.36 7.26V16.59C1225.36 17.5167 1225.18 18.3267 1224.8 19.02C1224.43 19.7067 1223.91 20.2433 1223.25 20.63C1222.59 21.01 1221.83 21.2 1220.96 21.2C1220.08 21.2 1219.32 21.0067 1218.66 20.62C1218.02 20.2267 1217.51 19.6833 1217.15 18.99C1216.8 18.2967 1216.62 17.4967 1216.62 16.59V7.26H1217.88V17.03C1217.88 18.0167 1218.17 18.7567 1218.73 19.25C1219.3 19.7367 1220.04 19.98 1220.96 19.98C1221.9 19.98 1222.65 19.7367 1223.21 19.25C1223.79 18.7567 1224.07 18.0167 1224.07 17.03V7.26H1225.36ZM1239.52 17.26C1239.52 18.0267 1239.33 18.7067 1238.95 19.3C1238.58 19.8933 1238.03 20.36 1237.31 20.7C1236.59 21.0333 1235.71 21.2 1234.67 21.2C1233.76 21.2 1232.9 21.0567 1232.1 20.77C1231.31 20.4833 1230.62 20.0633 1230.04 19.51L1230.88 18.55C1231.35 18.9967 1231.89 19.3567 1232.51 19.63C1233.13 19.8967 1233.88 20.03 1234.74 20.03C1235.33 20.03 1235.89 19.93 1236.41 19.73C1236.94 19.53 1237.37 19.2233 1237.7 18.81C1238.04 18.3967 1238.2 17.87 1238.2 17.23C1238.2 16.75 1238.11 16.3433 1237.93 16.01C1237.75 15.67 1237.43 15.37 1236.97 15.11C1236.51 14.8433 1235.87 14.59 1235.03 14.35C1234.18 14.1033 1233.42 13.8233 1232.75 13.51C1232.09 13.19 1231.56 12.79 1231.18 12.31C1230.8 11.8233 1230.61 11.21 1230.61 10.47C1230.61 9.83 1230.79 9.25333 1231.13 8.74C1231.49 8.22667 1231.98 7.82 1232.61 7.52C1233.25 7.22 1233.99 7.07 1234.84 7.07C1235.76 7.07 1236.55 7.2 1237.21 7.46C1237.89 7.72 1238.51 8.09333 1239.07 8.58L1238.21 9.52C1237.71 9.06667 1237.17 8.74 1236.59 8.54C1236.02 8.34 1235.44 8.24 1234.84 8.24C1234.32 8.24 1233.83 8.32333 1233.38 8.49C1232.94 8.65 1232.58 8.89333 1232.3 9.22C1232.03 9.54667 1231.89 9.96333 1231.89 10.47C1231.89 10.8967 1232.01 11.2667 1232.23 11.58C1232.46 11.8867 1232.84 12.17 1233.37 12.43C1233.91 12.6833 1234.64 12.9433 1235.55 13.21C1236.22 13.3967 1236.86 13.6367 1237.46 13.93C1238.07 14.2167 1238.56 14.6233 1238.94 15.15C1239.33 15.67 1239.52 16.3733 1239.52 17.26ZM1252.6 11.43C1252.6 10.65 1252.44 10.0367 1252.13 9.59C1251.82 9.14333 1251.4 8.82667 1250.88 8.64C1250.36 8.44667 1249.78 8.35 1249.14 8.35H1246.89V14.63H1249C1249.68 14.63 1250.3 14.5433 1250.84 14.37C1251.38 14.19 1251.8 13.87 1252.12 13.41C1252.44 12.9433 1252.6 12.2833 1252.6 11.43ZM1254 11.4C1254 12.4733 1253.77 13.3267 1253.32 13.96C1252.86 14.5933 1252.24 15.05 1251.45 15.33C1250.65 15.6033 1249.75 15.74 1248.73 15.74H1246.89V21H1245.61V7.26H1248.87C1250.44 7.26 1251.69 7.59667 1252.61 8.27C1253.53 8.93667 1254 9.98 1254 11.4ZM1260.95 8.4V13.43H1266.15V14.6H1260.95V19.89H1267.36V21H1259.67V7.26H1267.13L1266.96 8.4H1260.95ZM1279.13 21L1273.93 8.61C1273.92 8.71667 1273.93 8.94 1273.94 9.28C1273.95 9.61333 1273.97 10.02 1273.99 10.5C1274.02 10.98 1274.04 11.49 1274.05 12.03C1274.07 12.5633 1274.08 13.0867 1274.08 13.6V21H1272.82V7.26H1274.65L1279.99 19.73C1280 19.61 1280 19.3 1279.97 18.8C1279.94 18.3 1279.91 17.6833 1279.88 16.95C1279.85 16.2167 1279.84 15.44 1279.84 14.62V7.26H1281.1V21H1279.13ZM1295.49 17.26C1295.49 18.0267 1295.3 18.7067 1294.92 19.3C1294.55 19.8933 1294 20.36 1293.28 20.7C1292.56 21.0333 1291.68 21.2 1290.64 21.2C1289.73 21.2 1288.87 21.0567 1288.07 20.77C1287.28 20.4833 1286.59 20.0633 1286.01 19.51L1286.85 18.55C1287.32 18.9967 1287.86 19.3567 1288.48 19.63C1289.1 19.8967 1289.85 20.03 1290.71 20.03C1291.3 20.03 1291.86 19.93 1292.38 19.73C1292.91 19.53 1293.34 19.2233 1293.67 18.81C1294.01 18.3967 1294.17 17.87 1294.17 17.23C1294.17 16.75 1294.08 16.3433 1293.9 16.01C1293.72 15.67 1293.4 15.37 1292.94 15.11C1292.48 14.8433 1291.84 14.59 1291 14.35C1290.15 14.1033 1289.39 13.8233 1288.72 13.51C1288.06 13.19 1287.53 12.79 1287.15 12.31C1286.77 11.8233 1286.58 11.21 1286.58 10.47C1286.58 9.83 1286.76 9.25333 1287.1 8.74C1287.46 8.22667 1287.95 7.82 1288.58 7.52C1289.22 7.22 1289.96 7.07 1290.81 7.07C1291.73 7.07 1292.52 7.2 1293.18 7.46C1293.86 7.72 1294.48 8.09333 1295.04 8.58L1294.18 9.52C1293.68 9.06667 1293.14 8.74 1292.56 8.54C1291.99 8.34 1291.41 8.24 1290.81 8.24C1290.29 8.24 1289.8 8.32333 1289.35 8.49C1288.91 8.65 1288.55 8.89333 1288.27 9.22C1288 9.54667 1287.86 9.96333 1287.86 10.47C1287.86 10.8967 1287.98 11.2667 1288.2 11.58C1288.43 11.8867 1288.81 12.17 1289.34 12.43C1289.88 12.6833 1290.61 12.9433 1291.52 13.21C1292.19 13.3967 1292.83 13.6367 1293.43 13.93C1294.04 14.2167 1294.53 14.6233 1294.91 15.15C1295.3 15.67 1295.49 16.3733 1295.49 17.26ZM1302.93 8.4V13.43H1308.13V14.6H1302.93V19.89H1309.34V21H1301.65V7.26H1309.11L1308.94 8.4H1302.93Z" fill="white"/>
<path d="M1076.73 17.19C1076.73 18.3767 1076.29 19.3467 1075.41 20.1C1074.54 20.8533 1073.3 21.23 1071.7 21.23C1070.69 21.23 1069.78 21.0767 1068.96 20.77C1068.15 20.4633 1067.45 20.03 1066.87 19.47L1067.9 18.31C1068.37 18.7567 1068.92 19.1133 1069.54 19.38C1070.16 19.64 1070.89 19.77 1071.73 19.77C1072.29 19.77 1072.81 19.68 1073.3 19.5C1073.79 19.3133 1074.18 19.0333 1074.48 18.66C1074.78 18.28 1074.93 17.8 1074.93 17.22C1074.93 16.78 1074.84 16.4033 1074.67 16.09C1074.5 15.77 1074.19 15.49 1073.75 15.25C1073.31 15.0033 1072.7 14.7633 1071.91 14.53C1071 14.2633 1070.22 13.9633 1069.55 13.63C1068.89 13.29 1068.38 12.8767 1068.01 12.39C1067.65 11.8967 1067.47 11.2833 1067.47 10.55C1067.47 9.86333 1067.66 9.25333 1068.04 8.72C1068.42 8.18667 1068.94 7.77 1069.61 7.47C1070.28 7.16333 1071.06 7.01 1071.93 7.01C1072.88 7.01 1073.71 7.14667 1074.41 7.42C1075.12 7.68667 1075.76 8.07333 1076.33 8.58L1075.31 9.71C1074.82 9.27667 1074.29 8.96 1073.72 8.76C1073.15 8.56 1072.58 8.46 1071.99 8.46C1071.24 8.46 1070.59 8.62667 1070.05 8.96C1069.51 9.29333 1069.24 9.80333 1069.24 10.49C1069.24 10.89 1069.35 11.2333 1069.56 11.52C1069.77 11.8 1070.13 12.06 1070.64 12.3C1071.15 12.54 1071.84 12.7867 1072.71 13.04C1073.42 13.2467 1074.08 13.5067 1074.69 13.82C1075.3 14.1267 1075.8 14.5467 1076.17 15.08C1076.54 15.6067 1076.73 16.31 1076.73 17.19ZM1086.82 8.72V21H1085.09V8.72H1080.79V7.23H1091.18L1091 8.72H1086.82ZM1104.73 11.09C1104.73 12.1233 1104.41 12.96 1103.76 13.6C1103.12 14.2333 1102.32 14.6633 1101.37 14.89L1105.45 21H1103.37L1099.61 15.09H1097.75V21H1096.01V7.23H1099.55C1101.25 7.23 1102.54 7.55667 1103.41 8.21C1104.29 8.85667 1104.73 9.81667 1104.73 11.09ZM1102.87 11.09C1102.87 10.21 1102.62 9.57667 1102.1 9.19C1101.6 8.80333 1100.81 8.61 1099.75 8.61H1097.75V13.73H1099.75C1100.74 13.73 1101.51 13.53 1102.05 13.13C1102.6 12.7233 1102.87 12.0433 1102.87 11.09ZM1116.65 17.49H1111.2L1110.1 21H1108.39L1112.87 7.23H1115.09L1119.57 21H1117.75L1116.65 17.49ZM1111.65 16.05H1116.2L1113.94 8.69L1111.65 16.05ZM1128.8 8.72V21H1127.07V8.72H1122.77V7.23H1133.16L1132.98 8.72H1128.8ZM1140.21 8.65V13.29H1145.31V14.72H1140.21V19.61H1146.47V21H1138.47V7.23H1146.29L1146.09 8.65H1140.21ZM1156.22 21.23C1154.59 21.23 1153.29 20.64 1152.31 19.46C1151.35 18.2733 1150.86 16.49 1150.86 14.11C1150.86 12.9233 1151.02 11.8867 1151.33 11C1151.65 10.1133 1152.09 9.37333 1152.63 8.78C1153.18 8.18667 1153.8 7.74333 1154.48 7.45C1155.17 7.15667 1155.88 7.01 1156.62 7.01C1157.52 7.01 1158.27 7.14 1158.86 7.4C1159.46 7.65333 1160.02 8.02667 1160.56 8.52L1159.51 9.61C1158.69 8.84333 1157.73 8.46 1156.63 8.46C1155.97 8.46 1155.33 8.63667 1154.73 8.99C1154.14 9.34333 1153.66 9.93 1153.28 10.75C1152.91 11.57 1152.72 12.69 1152.72 14.11C1152.72 16.11 1153.03 17.5533 1153.65 18.44C1154.27 19.3267 1155.18 19.77 1156.38 19.77C1157.32 19.77 1158.19 19.55 1159 19.11V14.91H1156.29L1156.08 13.47H1160.72V20.03C1160.1 20.37 1159.44 20.6567 1158.73 20.89C1158.03 21.1167 1157.2 21.23 1156.22 21.23ZM1170.83 15.69V21H1169.07V15.71L1164.42 7.23H1166.34L1169.99 14.13L1173.68 7.23H1175.48L1170.83 15.69Z" fill="white"/>
<path d="M1351.27 21.23C1349.64 21.23 1348.33 20.64 1347.36 19.46C1346.39 18.2733 1345.91 16.49 1345.91 14.11C1345.91 12.9233 1346.07 11.8867 1346.38 11C1346.7 10.1133 1347.13 9.37333 1347.68 8.78C1348.23 8.18667 1348.84 7.74333 1349.53 7.45C1350.22 7.15667 1350.93 7.01 1351.67 7.01C1352.57 7.01 1353.32 7.14 1353.91 7.4C1354.5 7.65333 1355.07 8.02667 1355.61 8.52L1354.56 9.61C1353.74 8.84333 1352.78 8.46 1351.68 8.46C1351.01 8.46 1350.38 8.63667 1349.78 8.99C1349.19 9.34333 1348.7 9.93 1348.33 10.75C1347.96 11.57 1347.77 12.69 1347.77 14.11C1347.77 16.11 1348.08 17.5533 1348.7 18.44C1349.32 19.3267 1350.23 19.77 1351.43 19.77C1352.36 19.77 1353.24 19.55 1354.05 19.11V14.91H1351.34L1351.13 13.47H1355.77V20.03C1355.15 20.37 1354.49 20.6567 1353.78 20.89C1353.08 21.1167 1352.24 21.23 1351.27 21.23ZM1369.74 11.09C1369.74 12.1233 1369.42 12.96 1368.77 13.6C1368.13 14.2333 1367.33 14.6633 1366.38 14.89L1370.46 21H1368.38L1364.62 15.09H1362.76V21H1361.02V7.23H1364.56C1366.26 7.23 1367.55 7.55667 1368.42 8.21C1369.3 8.85667 1369.74 9.81667 1369.74 11.09ZM1367.88 11.09C1367.88 10.21 1367.63 9.57667 1367.11 9.19C1366.61 8.80333 1365.82 8.61 1364.76 8.61H1362.76V13.73H1364.76C1365.75 13.73 1366.52 13.53 1367.06 13.13C1367.61 12.7233 1367.88 12.0433 1367.88 11.09ZM1384.05 14.13C1384.05 15.5233 1383.86 16.7533 1383.48 17.82C1383.1 18.8867 1382.54 19.7233 1381.78 20.33C1381.04 20.93 1380.1 21.23 1378.98 21.23C1377.86 21.23 1376.93 20.9367 1376.17 20.35C1375.43 19.7567 1374.86 18.93 1374.48 17.87C1374.1 16.81 1373.91 15.57 1373.91 14.15C1373.91 12.7567 1374.1 11.5233 1374.48 10.45C1374.86 9.37667 1375.43 8.53667 1376.17 7.93C1376.93 7.31667 1377.86 7.01 1378.98 7.01C1380.1 7.01 1381.04 7.30667 1381.78 7.9C1382.54 8.49333 1383.1 9.32667 1383.48 10.4C1383.86 11.4667 1384.05 12.71 1384.05 14.13ZM1382.23 14.13C1382.23 12.2967 1381.98 10.8933 1381.47 9.92C1380.97 8.94667 1380.14 8.46 1378.98 8.46C1377.82 8.46 1376.99 8.95 1376.48 9.93C1375.98 10.91 1375.73 12.3167 1375.73 14.15C1375.73 15.9833 1375.99 17.38 1376.51 18.34C1377.03 19.2933 1377.86 19.77 1378.98 19.77C1380.14 19.77 1380.97 19.29 1381.47 18.33C1381.98 17.3633 1382.23 15.9633 1382.23 14.13ZM1398.89 7.23L1396.79 21H1394.51L1392.93 10.61L1391.34 21H1389.01L1387.07 7.23H1388.81L1390.28 19.09L1391.93 8.83H1394.06L1395.63 19.09L1397.28 7.23H1398.89ZM1407.8 8.72V21H1406.07V8.72H1401.77V7.23H1412.16L1411.98 8.72H1407.8ZM1423.56 21V14.47H1418.36V21H1416.63V7.23H1418.36V13.05H1423.56V7.23H1425.29V21H1423.56Z" fill="white"/>
</svg>
